<svg width="1618" height="617" viewBox="0 0 1618 617" fill="none" xmlns="http://www.w3.org/2000/svg">
<path d="M187.382 324.403C178.249 327.949 167.934 324.081 163.421 315.378L79.6101 153.988C69.8321 134.862 77.2462 111.545 96.3723 101.767C97.5542 101.23 98.6287 100.693 99.8107 100.155C121.408 91.452 145.155 104.131 151.172 126.051L151.279 126.373L198.88 301.624C201.351 310.972 196.408 320.858 187.382 324.403V324.403Z" fill="#F98500"/>
<path d="M182.871 243.063L159.124 252.411C154.719 254.023 149.776 251.874 147.95 247.469C146.23 243.063 148.379 238.013 152.785 236.294L178.25 226.301L182.871 243.063Z" fill="#FA6D00"/>
<path d="M192.107 276.696L171.691 284.325C167.286 285.829 162.451 283.787 160.517 279.382C158.797 274.977 160.946 269.926 165.459 268.207L187.594 259.934L192.107 276.696Z" fill="#FA6D00"/>
<path d="M288.494 166.559C281.295 161.616 277.641 152.913 279.253 144.209C283.229 124.224 270.335 104.775 250.242 100.692C250.027 100.692 249.704 100.585 249.489 100.585C241.216 99.1878 234.339 93.2781 231.76 85.2193C231.116 83.2852 230.363 81.3511 229.504 79.5245C220.371 61.258 198.236 53.844 179.969 62.9772C162.67 71.5732 154.934 92.0961 162.24 109.933C166.001 119.174 167.828 127.555 161.488 136.473C149.669 153.128 153.644 176.229 170.299 187.941C170.406 188.049 170.621 188.156 170.729 188.264C177.928 193.314 181.366 202.125 179.647 210.721C175.779 230.707 188.888 250.155 208.981 254.023C227.032 257.462 244.762 247.254 250.886 229.954C269.153 239.088 291.288 231.566 300.421 213.407C308.587 196.967 303.537 177.089 288.494 166.559Z" fill="#598C44"/>
<path d="M372.304 196.108C367.469 188.802 367.361 179.346 372.089 171.932C383.371 154.955 378.643 131.961 361.666 120.679C361.451 120.571 361.236 120.356 361.022 120.249C350.491 113.587 351.244 104.131 350.384 93.2788C348.88 72.9708 331.043 57.7129 310.735 59.2172C291.501 60.7215 276.566 76.7315 276.566 96.0725C276.566 106.065 275.062 114.446 265.928 120.356C248.736 131.316 243.686 154.203 254.754 171.395C254.861 171.502 254.968 171.717 255.076 171.825C259.804 179.239 259.804 188.694 254.861 196.001C243.794 213.085 248.629 235.972 265.713 247.147C281.079 257.14 301.494 254.346 313.529 240.593C327.067 255.851 350.384 257.355 365.642 243.924C379.396 231.889 382.189 211.474 372.304 196.108V196.108Z" fill="#5F9548"/>
<path d="M429.798 299.904L326.646 265.52L383.487 95.1049C390.364 74.5819 411.317 58.6793 433.129 59.2166C446.668 59.5389 459.347 62.1177 469.985 70.7137C487.177 84.4673 493.946 107.462 486.962 128.307L429.798 299.904Z" fill="#FFB531"/>
<path d="M361.026 213.944V523.4H103.146V213.944L128.934 231.136L154.722 213.944L180.51 231.136L206.298 213.944L232.086 231.136L257.874 213.944L283.662 231.136L309.45 213.944L335.238 231.136L361.026 213.944Z" fill="#FFB531"/>
<path d="M361.026 285.184V523.4H103.146V471.287C197.81 439.482 291.614 381.566 361.026 285.184Z" fill="#FCAC1F"/>
<path d="M464.177 213.944V523.4H361.025V213.944L386.813 231.136L412.601 213.944L438.389 231.136L464.177 213.944Z" fill="#F98500"/>
<path d="M104.761 557.784C142.741 557.784 173.529 526.996 173.529 489.016C173.529 451.037 142.741 420.248 104.761 420.248C66.7816 420.248 35.9932 451.037 35.9932 489.016C35.9932 526.996 66.7816 557.784 104.761 557.784Z" fill="#F35244"/>
<path d="M249.276 377.268L257.872 394.46C247.234 405.097 242.936 420.57 246.589 435.291L249.276 446.036H214.892V432.927C214.892 409.395 228.215 387.798 249.276 377.268Z" fill="#5F9548"/>
<path d="M198.872 557.784C188.02 557.784 178.349 550.692 175.233 540.269L155.892 475.692C150.52 457.748 162.339 437.44 182.217 437.44C191.888 437.44 200.806 442.49 205.749 450.764L223.478 480.42V533.178C223.478 546.716 212.411 557.784 198.872 557.784V557.784Z" fill="#FA9F0C"/>
<path d="M265.286 557.784C276.138 557.784 285.809 550.692 288.925 540.269L308.266 475.692C313.746 457.533 301.711 437.44 281.94 437.44C272.27 437.44 263.352 442.49 258.409 450.764L240.68 480.42V533.178C240.68 546.716 251.747 557.784 265.286 557.784V557.784Z" fill="#FA9F0C"/>
<path d="M232.085 437.44C246.376 437.44 257.873 448.937 257.873 463.228V531.996C257.873 546.287 246.376 557.784 232.085 557.784C217.794 557.784 206.297 546.287 206.297 531.996V463.228C206.297 448.937 217.794 437.44 232.085 437.44Z" fill="#FFB531"/>
<path d="M475.349 64.0519C459.447 51.2653 437.634 47.3971 416.897 53.4143C396.696 59.3241 381.545 73.6149 375.313 92.4186L340.607 196.645L336.524 190.628L322.126 200.191V165.485L345.98 149.582L336.417 135.291L322.018 144.854V105.42H304.826V144.747L290.535 135.184L280.972 149.475L304.826 165.377V200.083L290.535 190.52L280.972 204.811L294.189 213.622L283.551 220.714L262.491 206.745C261.524 206.101 260.557 205.671 259.482 205.456C260.127 203.844 260.987 202.232 261.954 200.728C268.616 190.52 268.616 177.412 262.061 167.096C256.044 157.963 256.259 144.317 262.491 135.184C265.177 131.315 276.137 123.472 279.038 119.603C284.733 112.082 285.378 103.486 286.023 95.9645C286.452 90.0547 286.882 84.8971 289.461 80.9215C297.735 67.7052 315.249 63.7295 328.465 72.0032C331.259 73.7224 333.623 75.9788 335.664 78.4501C340.285 84.2524 340.715 90.0547 341.252 97.8986C341.467 100.585 341.682 103.486 342.004 106.495L359.088 104.346C358.766 101.767 358.551 99.188 358.444 96.7166C357.799 87.3685 357.047 77.8054 349.203 67.8126C333.623 48.0418 305.041 44.7109 285.27 60.1837C281.187 63.4072 277.641 67.2754 274.848 71.6808C270.12 79.2023 269.475 87.3685 268.831 94.4602C268.723 96.0719 268.616 97.5762 268.401 99.0805C263.136 95.5347 257.118 93.0633 250.779 91.8814C245.621 91.0218 241.323 87.3685 239.712 82.4258C235.951 70.7138 227.785 61.0433 216.825 55.4559C206.08 49.761 193.508 48.6865 181.904 52.4473C164.819 58.1421 152.355 74.1521 150.851 92.5261C150.313 99.5103 152.032 105.635 153.752 111.115C145.693 97.8986 131.617 89.5175 116.144 88.5504L116.467 50.4057L99.2745 50.2983L99.0596 75.1192L88.7444 48.6865L73.0568 55.241L83.3719 81.6736L66.3949 63.6221L53.9307 75.3341L80.041 103.271C65.8576 117.884 62.5267 139.804 71.9823 157.856L89.8189 192.24L105.077 184.288L87.2401 149.904C79.6112 135.184 85.306 117.025 100.027 109.396C114.747 101.767 132.906 107.462 140.535 122.182C141.502 124.116 142.255 126.05 142.899 128.199L143.222 129.274L115.499 140.126L121.732 156.136L147.734 146.036V146.144C146.123 152.268 145.693 158.608 146.767 164.947L128.071 172.254L134.303 188.264L152.785 181.065C157.083 188.264 164.497 194.926 164.497 194.926L140.535 204.274L143.329 211.258L129.038 220.821L107.978 206.853C104.002 204.167 98.7373 205.241 96.051 209.217C95.084 210.614 94.6542 212.333 94.6542 213.944V394.46H111.846V229.955L124.31 238.228C127.212 240.162 130.972 240.162 133.873 238.228L154.934 224.26L175.994 238.228C178.895 240.162 182.656 240.162 185.557 238.228L206.617 224.26L227.677 238.228C230.578 240.162 234.339 240.162 237.24 238.228L258.3 224.26L279.361 238.228C282.262 240.162 286.023 240.162 288.924 238.228L309.984 224.26L331.044 238.228C333.945 240.162 337.706 240.162 340.607 238.228L353.071 229.955V514.804H318.687V531.996H464.819C469.547 531.996 473.415 528.128 473.415 523.4V213.944C473.415 211.366 472.233 209.002 470.299 207.39L495.765 131.101C503.179 106.817 495.228 80.0619 475.349 64.0519V64.0519ZM247.878 176.767C248.63 177.949 249.167 179.238 249.49 180.635L243.58 189.338L230.471 157.103L241.968 140.126C238.959 152.483 240.894 166.237 247.878 176.767ZM187.921 215.986C190.177 206.853 188.351 197.29 183.085 189.553C178.035 182.247 169.977 177.197 165.893 169.245C163.744 165.055 162.885 160.22 163.422 155.492C164.712 144.962 172.663 136.151 173.845 125.621C174.704 117.884 171.588 110.363 169.977 102.734C166.216 85.8642 176.853 68.7797 195.012 67.9201C203.823 67.5977 212.204 71.3584 217.792 78.1278C222.735 84.2524 224.991 92.3112 229.934 98.5433C233.587 103.164 238.53 106.495 244.117 108.106C249.597 109.718 256.044 109.933 259.697 114.338C253.358 118.851 248.2 124.761 244.654 131.745L232.405 123.579L222.735 137.548L207.906 101.337L192.111 107.784L206.832 144.102L190.07 140.879L186.631 157.641L214.246 163.873L227.677 195.463L210.915 192.24L208.873 202.34C208.766 202.447 192.326 212.763 187.921 215.986V215.986ZM217.792 211.258L235.521 214.912L236.703 217.813L232.083 220.821L217.792 211.258ZM328.68 216.416L335.342 211.903L332.871 219.21L328.68 216.416ZM369.619 229.955L382.083 238.228C384.984 240.162 388.745 240.162 391.646 238.228L404.11 229.955V468.171L369.726 502.555V229.955H369.619ZM455.579 229.955V502.555L421.195 468.171V229.955L433.659 238.228C436.56 240.162 440.321 240.162 443.222 238.228L455.579 229.955ZM412.599 483.966L443.437 514.804H381.76L412.599 483.966ZM478.788 125.621L449.561 213.3L438.387 220.714L417.326 206.745C414.425 204.811 410.664 204.811 407.763 206.745L386.703 220.714C386.703 220.714 365.213 206.423 364.998 206.316C362.205 204.811 358.766 205.026 356.187 206.745L354.898 207.605L391.538 97.7911C396.051 84.3599 407.011 74.2596 421.732 69.8542C436.99 65.3413 453 68.135 464.604 77.3756C478.895 88.9802 484.59 108.214 478.788 125.621V125.621Z" fill="black"/>
<path d="M402.432 119.641L454.027 111.06L456.847 128.011L405.251 136.593L402.432 119.641Z" fill="black"/>
<path d="M385.227 171.191L436.822 162.609L439.642 179.56L388.046 188.142L385.227 171.191Z" fill="black"/>
<path d="M282.049 428.844C272.593 428.737 263.46 432.497 256.798 439.267C256.69 439.159 256.583 439.052 256.475 438.837L255.079 433.142C255.079 433.035 255.079 433.035 254.971 432.927C251.64 421.215 258.302 406.387 264.104 400.585C266.683 398.006 267.328 393.923 265.716 390.699L257.12 373.507C254.971 369.209 249.814 367.49 245.623 369.639C221.554 381.566 206.404 406.172 206.511 432.927V437.548C204.47 436.043 202.213 434.646 199.957 433.357C183.302 424.439 161.705 430.026 151.819 445.714C146.124 454.847 144.62 467.204 147.844 478.056L159.018 515.341C144.19 545.105 108.087 557.247 78.3235 542.526C48.8822 527.913 36.6329 492.347 50.8163 462.691C51.0312 462.261 51.2461 461.831 51.461 461.401L51.7833 490.628L68.9753 490.413L68.4381 454.632L102.715 456.244L103.574 439.052L73.7031 437.655C82.6215 432.175 92.9366 429.167 103.359 428.844C115.823 428.522 128.073 432.068 138.388 439.052L147.951 424.761C128.61 411.76 104.434 408.214 82.1917 414.983L85.845 406.387L70.0498 399.618L58.2303 427.125C57.3707 427.77 56.4037 428.522 55.5441 429.274L29.3263 403.056L17.1845 415.198L43.6171 441.631C43.0799 442.383 42.5426 443.135 42.0054 443.887L13.8535 455.922L20.6229 471.717L30.5083 467.419C18.5813 508.465 42.2203 551.337 83.2662 563.264C110.344 571.108 139.57 563.586 159.556 543.601C161.597 541.559 163.531 539.303 165.358 537.046L167.077 542.634C172.342 560.255 190.824 570.141 208.445 564.876C210.917 564.124 213.173 563.157 215.43 561.867C225.852 567.669 238.531 567.669 248.954 561.867C264.857 571 285.165 565.413 294.298 549.51C295.587 547.361 296.554 544.997 297.306 542.526L316.647 477.949C317.829 473.651 318.367 469.138 318.152 464.625C318.044 444.962 301.927 428.844 282.049 428.844V428.844ZM245.73 389.41L247.665 393.278C240.895 402.626 236.06 416.273 236.92 429.167C234.448 428.737 227.679 428.414 223.596 429.919C224.455 413.694 232.622 398.866 245.73 389.41ZM183.517 537.798L164.176 473.221C162.349 467.096 163.209 459.79 166.217 454.954C171.16 447.003 183.087 443.995 191.683 448.615C195.766 450.764 197.378 452.268 198.99 454.31C198.238 457.211 197.808 460.22 197.808 463.228V531.996C197.808 537.906 199.312 543.708 202.213 548.866C193.94 550.585 185.881 545.75 183.517 537.798ZM214.892 531.996V463.228C214.892 453.773 222.629 446.036 232.084 446.036C241.54 446.036 249.276 453.773 249.276 463.228V531.996C249.276 541.452 241.54 549.188 232.084 549.188C222.629 549.188 214.892 541.452 214.892 531.996ZM300.1 473.221L280.759 537.798C278.395 545.75 270.229 550.585 262.063 548.866C264.964 543.708 266.468 537.906 266.468 531.996V463.228C266.468 460.542 266.146 457.963 265.501 455.384C267.758 451.946 272.915 446.036 281.941 446.036C292.364 446.036 300.745 454.525 300.745 464.84C300.96 467.634 300.745 470.535 300.1 473.221V473.221Z" fill="black"/>
<path d="M751.863 298.962C738.038 298.962 725.597 297.284 714.537 293.926C703.478 290.372 692.913 284.249 682.841 275.56C680.273 273.388 678.298 270.919 676.916 268.154C675.534 265.389 674.842 262.625 674.842 259.86C674.842 255.318 676.422 251.368 679.582 248.011C682.939 244.456 687.087 242.678 692.024 242.678C695.776 242.678 699.133 243.863 702.096 246.233C709.6 252.355 717.006 256.996 724.313 260.156C731.818 263.316 741.001 264.896 751.863 264.896C759.17 264.896 765.884 263.81 772.006 261.637C778.128 259.267 783.066 256.206 786.818 252.454C790.57 248.504 792.446 244.061 792.446 239.124C792.446 233.199 790.669 228.163 787.114 224.016C783.559 219.869 778.128 216.413 770.821 213.648C763.514 210.685 754.232 208.414 742.976 206.834C732.311 205.255 722.931 202.885 714.834 199.725C706.737 196.368 699.923 192.22 694.394 187.283C689.062 182.148 685.013 176.224 682.248 169.509C679.483 162.597 678.101 154.895 678.101 146.403C678.101 133.567 681.359 122.606 687.877 113.522C694.591 104.437 703.577 97.5251 714.834 92.7854C726.09 88.0457 738.532 85.6758 752.159 85.6758C764.995 85.6758 776.845 87.6507 787.707 91.6005C798.766 95.3527 807.751 100.191 814.664 106.116C820.391 110.658 823.254 115.891 823.254 121.816C823.254 126.161 821.576 130.111 818.218 133.665C814.861 137.22 810.911 138.997 806.369 138.997C803.407 138.997 800.741 138.109 798.371 136.331C795.211 133.567 790.965 130.999 785.633 128.629C780.301 126.062 774.672 123.988 768.748 122.409C762.823 120.631 757.293 119.742 752.159 119.742C743.667 119.742 736.459 120.829 730.534 123.001C724.807 125.173 720.462 128.136 717.5 131.888C714.537 135.64 713.056 139.985 713.056 144.922C713.056 150.847 714.735 155.784 718.092 159.734C721.647 163.486 726.683 166.547 733.2 168.917C739.717 171.089 747.518 173.064 756.602 174.841C768.451 177.014 778.82 179.581 787.707 182.543C796.791 185.506 804.295 189.357 810.22 194.096C816.145 198.639 820.588 204.465 823.55 211.574C826.513 218.486 827.994 226.978 827.994 237.05C827.994 249.887 824.439 260.946 817.33 270.228C810.22 279.51 800.839 286.619 789.188 291.557C777.733 296.494 765.292 298.962 751.863 298.962ZM1012.75 216.906C1012.75 233.1 1009.09 247.418 1001.79 259.86C994.677 272.104 985 281.682 972.756 288.594C960.709 295.506 947.181 298.962 932.172 298.962C917.163 298.962 903.537 295.506 891.293 288.594C879.246 281.682 869.569 272.104 862.262 259.86C855.152 247.418 851.598 233.1 851.598 216.906C851.598 200.712 855.152 186.493 862.262 174.249C869.569 161.807 879.246 152.13 891.293 145.218C903.537 138.109 917.163 134.554 932.172 134.554C947.181 134.554 960.709 138.109 972.756 145.218C985 152.13 994.677 161.807 1001.79 174.249C1009.09 186.493 1012.75 200.712 1012.75 216.906ZM977.2 216.906C977.2 206.834 975.126 198.145 970.979 190.838C967.029 183.333 961.598 177.508 954.686 173.36C947.971 169.213 940.467 167.139 932.172 167.139C923.878 167.139 916.275 169.213 909.363 173.36C902.648 177.508 897.217 183.333 893.07 190.838C889.12 198.145 887.145 206.834 887.145 216.906C887.145 226.781 889.12 235.47 893.07 242.975C897.217 250.282 902.648 256.009 909.363 260.156C916.275 264.303 923.878 266.377 932.172 266.377C940.467 266.377 947.971 264.303 954.686 260.156C961.598 256.009 967.029 250.282 970.979 242.975C975.126 235.47 977.2 226.781 977.2 216.906ZM1064.59 296C1059.46 296 1055.21 294.321 1051.86 290.964C1048.5 287.409 1046.82 283.065 1046.82 277.93V94.859C1046.82 89.7243 1048.5 85.4783 1051.86 82.1211C1055.21 78.5663 1059.46 76.7889 1064.59 76.7889C1069.73 76.7889 1073.98 78.5663 1077.33 82.1211C1080.69 85.4783 1082.37 89.7243 1082.37 94.859V277.93C1082.37 283.065 1080.69 287.409 1077.33 290.964C1073.98 294.321 1069.73 296 1064.59 296ZM1158.8 137.516C1163.34 137.516 1167.29 139.392 1170.65 143.145C1174 146.897 1175.68 150.55 1175.68 154.105C1175.68 158.845 1173.31 163.288 1168.57 167.436L1079.41 249.492L1077.93 208.612L1145.76 143.145C1149.51 139.392 1153.86 137.516 1158.8 137.516ZM1163.24 295.704C1158.11 295.704 1153.76 293.729 1150.21 289.779L1095.4 231.718L1122.36 206.834L1175.68 264.896C1179.43 268.845 1181.31 273.289 1181.31 278.226C1181.31 283.361 1179.24 287.607 1175.09 290.964C1171.14 294.124 1167.19 295.704 1163.24 295.704ZM1359.6 216.906C1359.6 233.1 1355.95 247.418 1348.64 259.86C1341.53 272.104 1331.86 281.682 1319.61 288.594C1307.57 295.506 1294.04 298.962 1279.03 298.962C1264.02 298.962 1250.39 295.506 1238.15 288.594C1226.1 281.682 1216.43 272.104 1209.12 259.86C1202.01 247.418 1198.45 233.1 1198.45 216.906C1198.45 200.712 1202.01 186.493 1209.12 174.249C1216.43 161.807 1226.1 152.13 1238.15 145.218C1250.39 138.109 1264.02 134.554 1279.03 134.554C1294.04 134.554 1307.57 138.109 1319.61 145.218C1331.86 152.13 1341.53 161.807 1348.64 174.249C1355.95 186.493 1359.6 200.712 1359.6 216.906ZM1324.06 216.906C1324.06 206.834 1321.98 198.145 1317.84 190.838C1313.89 183.333 1308.45 177.508 1301.54 173.36C1294.83 169.213 1287.32 167.139 1279.03 167.139C1270.73 167.139 1263.13 169.213 1256.22 173.36C1249.5 177.508 1244.07 183.333 1239.93 190.838C1235.98 198.145 1234 206.834 1234 216.906C1234 226.781 1235.98 235.47 1239.93 242.975C1244.07 250.282 1249.5 256.009 1256.22 260.156C1263.13 264.303 1270.73 266.377 1279.03 266.377C1287.32 266.377 1294.83 264.303 1301.54 260.156C1308.45 256.009 1313.89 250.282 1317.84 242.975C1321.98 235.47 1324.06 226.781 1324.06 216.906ZM1475.44 134.554C1490.05 134.554 1501.11 137.615 1508.62 143.737C1516.32 149.859 1521.55 158.055 1524.32 168.324C1527.28 178.396 1528.76 189.653 1528.76 202.095V277.93C1528.76 283.065 1527.08 287.409 1523.72 290.964C1520.37 294.321 1516.12 296 1510.99 296C1505.85 296 1501.6 294.321 1498.25 290.964C1494.89 287.409 1493.21 283.065 1493.21 277.93V202.095C1493.21 195.578 1492.32 189.752 1490.55 184.617C1488.97 179.285 1486 175.039 1481.66 171.879C1477.31 168.719 1471.09 167.139 1463 167.139C1455.1 167.139 1448.38 168.719 1442.85 171.879C1437.52 175.039 1433.37 179.285 1430.41 184.617C1427.65 189.752 1426.26 195.578 1426.26 202.095V277.93C1426.26 283.065 1424.58 287.409 1421.23 290.964C1417.87 294.321 1413.62 296 1408.49 296C1403.35 296 1399.11 294.321 1395.75 290.964C1392.39 287.409 1390.72 283.065 1390.72 277.93V155.586C1390.72 150.452 1392.39 146.206 1395.75 142.848C1399.11 139.294 1403.35 137.516 1408.49 137.516C1413.62 137.516 1417.87 139.294 1421.23 142.848C1424.58 146.206 1426.26 150.452 1426.26 155.586V168.324L1421.82 167.436C1423.6 164.078 1426.16 160.524 1429.52 156.771C1432.88 152.822 1436.83 149.168 1441.37 145.811C1445.91 142.453 1451.05 139.787 1456.77 137.813C1462.5 135.64 1468.72 134.554 1475.44 134.554ZM1600.66 277.93C1600.66 283.065 1598.98 287.409 1595.62 290.964C1592.26 294.321 1588.02 296 1582.88 296C1577.75 296 1573.5 294.321 1570.14 290.964C1566.79 287.409 1565.11 283.065 1565.11 277.93V155.586C1565.11 150.452 1566.79 146.206 1570.14 142.848C1573.5 139.294 1577.75 137.516 1582.88 137.516C1588.02 137.516 1592.26 139.294 1595.62 142.848C1598.98 146.206 1600.66 150.452 1600.66 155.586V277.93ZM1582.59 118.261C1575.87 118.261 1571.13 117.175 1568.37 115.003C1565.6 112.83 1564.22 108.979 1564.22 103.45V97.8213C1564.22 92.0942 1565.7 88.2432 1568.66 86.2683C1571.82 84.0959 1576.56 83.0098 1582.88 83.0098C1589.79 83.0098 1594.63 84.0959 1597.4 86.2683C1600.16 88.4407 1601.54 92.2917 1601.54 97.8213V103.45C1601.54 109.177 1600.06 113.127 1597.1 115.299C1594.14 117.274 1589.3 118.261 1582.59 118.261Z" fill="#377000"/>
<path d="M720.66 569.975C710.917 569.975 702.359 568.527 694.986 565.63C687.613 562.734 680.504 558.126 673.657 551.806C672.736 550.884 671.946 549.897 671.288 548.844C670.761 547.659 670.498 546.408 670.498 545.091C670.498 542.985 671.222 541.142 672.67 539.562C674.25 537.85 676.159 536.994 678.397 536.994C680.24 536.994 681.886 537.719 683.334 539.167C688.469 544.17 693.999 547.988 699.923 550.621C705.98 553.254 712.76 554.571 720.265 554.571C726.057 554.571 731.258 553.649 735.866 551.806C740.606 549.963 744.358 547.395 747.123 544.104C749.888 540.813 751.27 536.994 751.27 532.65C751.138 527.383 749.559 523.039 746.53 519.616C743.634 516.192 739.552 513.362 734.286 511.124C729.151 508.754 723.161 506.779 716.315 505.199C710.258 503.751 704.663 501.973 699.528 499.867C694.525 497.76 690.181 495.193 686.494 492.165C682.808 489.005 679.911 485.253 677.805 480.908C675.83 476.432 674.842 471.231 674.842 465.307C674.842 457.802 676.817 451.219 680.767 445.558C684.717 439.896 690.181 435.552 697.158 432.524C704.136 429.364 712.168 427.784 721.252 427.784C729.283 427.784 736.853 429.1 743.963 431.734C751.204 434.367 756.997 437.987 761.342 442.595C763.975 445.097 765.292 447.533 765.292 449.902C765.292 451.877 764.436 453.721 762.724 455.432C761.144 457.012 759.301 457.802 757.195 457.802C755.746 457.802 754.43 457.275 753.245 456.222C751.007 453.721 748.176 451.482 744.753 449.508C741.33 447.533 737.578 445.953 733.496 444.768C729.415 443.583 725.333 442.99 721.252 442.99C715.196 442.99 709.864 443.912 705.255 445.755C700.647 447.467 697.027 449.968 694.394 453.26C691.892 456.42 690.641 460.238 690.641 464.714C690.641 469.717 692.09 473.864 694.986 477.156C697.883 480.316 701.767 482.949 706.638 485.055C711.509 487.03 716.907 488.808 722.832 490.387C729.283 491.967 735.208 493.811 740.606 495.917C746.135 497.892 750.875 500.393 754.825 503.422C758.775 506.45 761.803 510.334 763.909 515.073C766.147 519.681 767.267 525.409 767.267 532.255C767.267 539.496 765.226 545.947 761.144 551.609C757.063 557.27 751.468 561.746 744.358 565.038C737.38 568.197 729.481 569.843 720.66 569.975ZM802.068 429.759C804.306 429.759 806.215 430.549 807.795 432.129C809.375 433.577 810.165 435.486 810.165 437.856V559.903C810.165 562.141 809.309 564.05 807.597 565.63C806.017 567.21 804.108 568 801.87 568C799.369 568 797.394 567.21 795.945 565.63C794.497 564.05 793.773 562.141 793.773 559.903V437.856C793.773 435.486 794.563 433.577 796.143 432.129C797.723 430.549 799.698 429.759 802.068 429.759ZM893.109 429.759C895.479 429.759 897.388 430.549 898.836 432.129C900.416 433.577 901.206 435.486 901.206 437.856V559.903C901.206 562.141 900.416 564.05 898.836 565.63C897.256 567.21 895.282 568 892.912 568C890.674 568 888.765 567.21 887.185 565.63C885.605 564.05 884.815 562.141 884.815 559.903V437.856C884.815 435.486 885.605 433.577 887.185 432.129C888.896 430.549 890.871 429.759 893.109 429.759ZM801.278 489.992H893.307L893.109 505.396H800.685L801.278 489.992ZM1060.52 498.879C1060.52 509.017 1058.88 518.431 1055.59 527.12C1052.3 535.678 1047.69 543.182 1041.76 549.634C1035.84 556.085 1028.79 561.088 1020.63 564.643C1012.47 568.197 1003.58 569.975 993.971 569.975C984.229 569.975 975.276 568.197 967.113 564.643C959.082 561.088 952.104 556.085 946.179 549.634C940.255 543.182 935.647 535.678 932.355 527.12C929.064 518.431 927.418 509.017 927.418 498.879C927.418 488.61 929.064 479.196 932.355 470.639C935.647 461.949 940.255 454.445 946.179 448.125C952.104 441.674 959.082 436.671 967.113 433.116C975.276 429.561 984.229 427.784 993.971 427.784C1003.58 427.784 1012.47 429.561 1020.63 433.116C1028.79 436.671 1035.84 441.674 1041.76 448.125C1047.69 454.445 1052.3 461.949 1055.59 470.639C1058.88 479.196 1060.52 488.61 1060.52 498.879ZM1043.54 498.879C1043.54 488.083 1041.37 478.538 1037.02 470.244C1032.81 461.949 1027.02 455.432 1019.64 450.692C1012.27 445.953 1003.71 443.583 993.971 443.583C984.229 443.583 975.605 445.953 968.1 450.692C960.728 455.432 954.935 461.949 950.722 470.244C946.509 478.538 944.402 488.083 944.402 498.879C944.402 509.544 946.509 519.089 950.722 527.515C954.935 535.81 960.728 542.327 968.1 547.066C975.605 551.806 984.229 554.176 993.971 554.176C1003.71 554.176 1012.27 551.806 1019.64 547.066C1027.02 542.327 1032.81 535.81 1037.02 527.515C1041.37 519.089 1043.54 509.544 1043.54 498.879ZM1140.84 429.759C1148.08 429.759 1154.6 431.536 1160.39 435.091C1166.18 438.646 1170.72 443.517 1174.02 449.705C1177.44 455.893 1179.15 462.937 1179.15 470.836C1179.15 478.604 1177.44 485.648 1174.02 491.967C1170.72 498.287 1166.18 503.29 1160.39 506.976C1154.6 510.663 1148.08 512.506 1140.84 512.506H1100.75L1102.13 510.136V559.903C1102.13 562.141 1101.41 564.05 1099.96 565.63C1098.51 567.21 1096.67 568 1094.43 568C1092.06 568 1090.15 567.21 1088.7 565.63C1087.38 564.05 1086.73 562.141 1086.73 559.903V437.658C1086.73 435.42 1087.45 433.577 1088.9 432.129C1090.48 430.549 1092.39 429.759 1094.63 429.759H1140.84ZM1140.84 497.299C1145.18 497.299 1149 496.115 1152.29 493.745C1155.58 491.375 1158.22 488.149 1160.19 484.068C1162.17 479.986 1163.15 475.576 1163.15 470.836C1163.15 465.833 1162.17 461.423 1160.19 457.605C1158.22 453.786 1155.58 450.758 1152.29 448.52C1149 446.15 1145.18 444.965 1140.84 444.965H1100.75L1102.13 442.793V499.274L1100.75 497.299H1140.84Z" fill="#ADADAD"/>
</svg>
